<?xml version="1.0" standalone="no"?><!DOCTYPE svg PUBLIC "-//W3C//DTD SVG 1.1//EN" "http://www.w3.org/Graphics/SVG/1.1/DTD/svg11.dtd"><svg t="1536029114977" class="icon" style="" viewBox="0 0 1024 1024" version="1.1" xmlns="http://www.w3.org/2000/svg" p-id="5691" xmlns:xlink="http://www.w3.org/1999/xlink" width="200" height="200"><defs><style type="text/css"></style></defs><path d="M612.992 261.6" p-id="5692"></path><path d="M546.368 734.016c46.688 26.496 112.32 44.16 164.064 42.912 15.136 0 29.024-5.056 39.136-16.416l34.08-32.8c7.584-6.304 8.832-17.664 2.528-25.248-27.776-39.104-60.576-73.184-99.68-102.208-7.584-5.056-18.944-5.056-25.248 1.248l-50.464 49.216c-5.056 6.304-15.136 7.584-21.44 3.776-82.016-45.408-174.144-138.784-215.808-220.8-3.776-7.584-2.528-16.416 3.776-22.72l49.216-49.216c7.584-6.304 7.584-16.416 2.528-25.248-27.776-39.104-61.824-73.184-99.68-102.208-7.584-5.056-18.944-5.056-25.248 1.248L269.984 269.696C258.624 279.808 253.568 292.416 252.32 308.8c-1.248 50.464 13.888 118.592 39.136 164.032C335.616 566.208 454.24 688.576 546.368 734.016L546.368 734.016z" p-id="5693"></path><path d="M514.016 1000c-271.648 0-492.672-220.992-492.672-492.672 0-271.648 221.024-492.672 492.672-492.672s492.672 220.992 492.672 492.672C1006.656 779.008 785.664 1000 514.016 1000zM514.016 46.656c-254.016 0-460.672 206.656-460.672 460.672S260 968 514.016 968s460.672-206.656 460.672-460.672C974.656 253.344 768 46.656 514.016 46.656z" p-id="5694"></path></svg>