<?xml version="1.0" standalone="no"?><!DOCTYPE svg PUBLIC "-//W3C//DTD SVG 1.1//EN" "http://www.w3.org/Graphics/SVG/1.1/DTD/svg11.dtd"><svg t="1533276915127" class="icon" style="" viewBox="0 0 1024 1024" version="1.1" xmlns="http://www.w3.org/2000/svg" p-id="47116" xmlns:xlink="http://www.w3.org/1999/xlink" width="64" height="64"><defs><style type="text/css"></style></defs><path d="M686.08 962.56l-10.24 10.24-5.12-5.12-148.48-179.2 81.92-61.44 87.04 107.52 209.92-158.72 61.44 81.92-276.48 204.8zM522.24 614.4c-199.68 0-358.4 158.72-358.4 358.4h-102.4c0-189.44 117.76-353.28 281.6-424.96-61.44-51.2-102.4-128-102.4-215.04 0-153.6 128-281.6 281.6-281.6s281.6 128 281.6 281.6c0 87.04-40.96 163.84-102.4 215.04 61.44 25.6 117.76 66.56 163.84 117.76h-158.72c-56.32-30.72-117.76-51.2-184.32-51.2z m0-460.8C424.96 153.6 343.04 235.52 343.04 332.8S424.96 512 522.24 512s179.2-81.92 179.2-179.2S619.52 153.6 522.24 153.6z" p-id="47117"></path></svg>