<?xml version="1.0" standalone="no"?><!DOCTYPE svg PUBLIC "-//W3C//DTD SVG 1.1//EN" "http://www.w3.org/Graphics/SVG/1.1/DTD/svg11.dtd"><svg t="1532919477133" class="icon" style="" viewBox="0 0 1024 1024" version="1.1" xmlns="http://www.w3.org/2000/svg" p-id="5811" xmlns:xlink="http://www.w3.org/1999/xlink" width="64" height="64"><defs><style type="text/css"></style></defs><path d="M768 0H256C115.2 0 0 115.2 0 256v512c0 140.8 115.2 256 256 256h512c140.8 0 256-115.2 256-256V256c0-140.8-115.2-256-256-256z m-32 576H576v160c0 35.2-28.8 64-64 64s-64-28.8-64-64V576H288c-35.2 0-64-28.8-64-64s28.8-64 64-64h160V288c0-35.2 28.8-64 64-64s64 28.8 64 64v160h160c35.2 0 64 28.8 64 64s-28.8 64-64 64z" p-id="5812"></path></svg>