<?xml version="1.0" standalone="no"?><!DOCTYPE svg PUBLIC "-//W3C//DTD SVG 1.1//EN" "http://www.w3.org/Graphics/SVG/1.1/DTD/svg11.dtd"><svg t="1532940326777" class="icon" style="" viewBox="0 0 1024 1024" version="1.1" xmlns="http://www.w3.org/2000/svg" p-id="9995" xmlns:xlink="http://www.w3.org/1999/xlink" width="64" height="64"><defs><style type="text/css"></style></defs><path d="M509.811148 65.080228c-246.678192 0-446.650643 199.972451-446.650643 446.650643s199.972451 446.650643 446.650643 446.650643 446.650643-199.972451 446.650643-446.650643S756.490364 65.080228 509.811148 65.080228zM727.422328 535.8942 533.973454 535.8942l0 193.448874c0 13.353123-10.809183 24.186865-24.162306 24.186865-13.353123 0-24.162306-10.832719-24.162306-24.186865L485.648842 535.8942 292.200992 535.8942c-13.328563 0-24.162306-10.809183-24.162306-24.189935 0-13.328563 10.832719-24.134677 24.162306-24.134677l193.448874 0L485.649865 294.145274c0-13.352099 10.809183-24.162306 24.162306-24.214495 13.352099 0.052189 24.162306 10.861372 24.162306 24.214495l0 193.424314 193.448874 0c13.328563 0 24.162306 10.806113 24.162306 24.134677C751.612263 525.085016 740.77545 535.8942 727.422328 535.8942z" p-id="9996"></path><path d="M509.811148 958.893166c-60.365856 0-118.927623-11.82328-174.056198-35.140335-53.247738-22.521946-101.068883-54.764278-142.135184-95.830579-41.066301-41.066301-73.308633-88.887446-95.829556-142.135184-23.318078-55.128575-35.140335-113.689319-35.140335-174.055175s11.82328-118.927623 35.140335-174.056198c22.521946-53.247738 54.764278-101.068883 95.829556-142.135184 41.066301-41.066301 88.887446-73.308633 142.135184-95.829556 55.128575-23.318078 113.690342-35.140335 174.056198-35.140335s118.927623 11.82328 174.056198 35.140335c53.247738 22.521946 101.069907 54.764278 142.135184 95.829556 41.067324 41.066301 73.309656 88.88847 95.830579 142.135184 23.317055 55.129598 35.140335 113.690342 35.140335 174.056198s-11.82328 118.9266-35.140335 174.055175c-22.521946 53.247738-54.764278 101.069907-95.830579 142.135184-41.066301 41.067324-88.887446 73.309656-142.135184 95.830579C628.738771 947.069887 570.177004 958.893166 509.811148 958.893166zM509.811148 65.590857c-246.001787 0-446.13899 200.137203-446.13899 446.140013 0 246.001787 200.137203 446.13899 446.13899 446.13899 246.001787 0 446.140013-200.137203 446.140013-446.13899C955.951161 265.729084 755.813958 65.590857 509.811148 65.590857zM509.811148 754.040568c-13.604856 0-24.673959-11.079336-24.673959-24.698518L485.137189 536.405853 292.199968 536.405853c-13.604856 0-24.673959-11.08036-24.673959-24.700565 0-13.59053 11.06808-24.64633 24.673959-24.64633l192.937221 0 0-192.913685c0-13.580297 11.06808-24.672936 24.671912-24.726148 13.608949 0.053212 24.676006 11.144828 24.676006 24.726148l0 192.913685 192.937221 0c13.604856 0 24.672936 11.0558 24.672936 24.64633 0.014326 6.592139-2.540869 12.792351-7.193843 17.455557-4.663206 4.672416-10.870582 7.246031-17.479093 7.246031L534.485107 536.406876l0 192.937221C534.485107 742.961232 523.417027 754.040568 509.811148 754.040568zM292.199968 488.082264c-13.041014 0-23.650653 10.597359-23.650653 23.623024 0 13.05534 10.609639 23.677259 23.650653 23.677259l193.960527 0 0 193.960527c0 13.054317 10.609639 23.675212 23.650653 23.675212 13.041014 0 23.650653-10.620895 23.650653-23.675212L533.461801 535.382547l193.960527 0c6.334265 0 12.284791-2.466168 16.754592-6.945179 4.459568-4.469801 6.90834-10.411117 6.895037-16.73208 0-13.026688-10.609639-23.624047-23.64963-23.624047L533.461801 488.081241l0-193.936991c0-13.018501-10.610662-23.651676-23.652699-23.702841-13.037944 0.050142-23.648606 10.683317-23.648606 23.702841l0 193.936991L292.199968 488.081241z" p-id="9997"></path></svg>