<?xml version="1.0" standalone="no"?><!DOCTYPE svg PUBLIC "-//W3C//DTD SVG 1.1//EN" "http://www.w3.org/Graphics/SVG/1.1/DTD/svg11.dtd"><svg t="1533277886632" class="icon" style="" viewBox="0 0 1024 1024" version="1.1" xmlns="http://www.w3.org/2000/svg" p-id="2111" xmlns:xlink="http://www.w3.org/1999/xlink" width="200" height="200"><defs><style type="text/css"></style></defs><path d="M979.232 532.96l-425.408 0 0 446.176c0 17.184-13.92 31.136-31.136 31.136s-31.136-13.952-31.136-31.136l0-446.176-446.176 0c-17.184 0-31.136-13.952-31.136-31.136s13.92-31.136 31.136-31.136l446.176 0 0-425.408c0-17.184 13.92-31.136 31.136-31.136s31.136 13.952 31.136 31.136l0 425.408 425.408 0c17.184 0 31.136 13.952 31.136 31.136s-13.92 31.136-31.136 31.136z" p-id="2112" fill="#888888"></path></svg>