<?xml version="1.0" standalone="no"?><!DOCTYPE svg PUBLIC "-//W3C//DTD SVG 1.1//EN" "http://www.w3.org/Graphics/SVG/1.1/DTD/svg11.dtd"><svg t="1533263033683" class="icon" style="" viewBox="0 0 1024 1024" version="1.1" xmlns="http://www.w3.org/2000/svg" p-id="18360" xmlns:xlink="http://www.w3.org/1999/xlink" width="64" height="64"><defs><style type="text/css"></style></defs><path d="M323.973 6.651H198.362v125.61h125.61V6.65z m502.442 0h-125.61v125.61h125.61V6.65z m125.613 62.805h-62.775v62.804c0 34.712-28.124 62.807-62.838 62.807h-125.61c-34.712 0-62.775-28.095-62.775-62.807V69.456H386.81v62.804c0 34.712-28.125 62.807-62.836 62.807H198.362c-34.712 0-62.774-28.095-62.774-62.807V69.456H72.751c-34.712 0-62.774 28.093-62.774 62.804v816.47c0 34.711 28.062 62.806 62.774 62.806h879.277c34.711 0 62.836-28.095 62.836-62.806V132.26c0-34.711-28.125-62.804-62.836-62.804zM323.973 823.12H198.362V697.51h125.61v125.61z m0-251.223H198.362V446.29h125.61V571.9z m251.221 251.223h-125.61V697.51h125.61v125.61z m0-251.223h-125.61V446.29h125.61V571.9z m251.22 251.223h-125.61V697.51h125.61v125.61z m0-251.223h-125.61V446.29h125.61V571.9z" fill="#28c76a" p-id="18361"></path></svg>