<?xml version="1.0" standalone="no"?><!DOCTYPE svg PUBLIC "-//W3C//DTD SVG 1.1//EN" "http://www.w3.org/Graphics/SVG/1.1/DTD/svg11.dtd"><svg t="1525682334670" class="icon" style="" viewBox="0 0 1024 1024" version="1.1" xmlns="http://www.w3.org/2000/svg" p-id="2305" xmlns:xlink="http://www.w3.org/1999/xlink" width="16" height="16"><defs><style type="text/css"></style></defs><path d="M512 64c-249.856 0-448 198.656-448 448s198.656 448 448 448 448-198.656 448-448S761.856 64 512 64zM780.8 403.456 460.8 672.256l0 0c-6.656 6.656-12.8 6.656-25.6 6.656-6.656 0-19.456-6.656-25.6-12.8l0 0-121.344-153.6c-12.8-12.8-6.656-32.256 6.656-45.056 12.8-12.8 32.256-6.656 45.056 6.656l109.056 128L742.4 351.744c12.8-12.8 32.256-6.656 45.056 6.656C800.256 371.2 793.6 390.656 780.8 403.456z" p-id="2306"></path></svg>