<?xml version="1.0" standalone="no"?><!DOCTYPE svg PUBLIC "-//W3C//DTD SVG 1.1//EN" "http://www.w3.org/Graphics/SVG/1.1/DTD/svg11.dtd"><svg t="1536027077944" class="icon" style="" viewBox="0 0 1024 1024" version="1.1" xmlns="http://www.w3.org/2000/svg" p-id="1338" xmlns:xlink="http://www.w3.org/1999/xlink" width="200" height="200"><defs><style type="text/css"></style></defs><path d="M798.72 588.8c-46.08-37.888-98.816-66.56-155.648-83.968C716.8 459.776 766.464 378.88 766.464 286.72c0-140.288-114.176-254.464-254.464-254.464S257.536 145.92 257.536 286.72c0 92.16 49.664 173.568 123.392 218.112-182.784 55.808-316.416 226.304-316.416 428.032 0 15.872 12.288 28.16 28.16 28.16s28.16-12.288 28.16-28.16c0-216.064 175.616-391.68 391.68-391.68 91.136 0 180.224 31.744 250.368 90.624 11.264 9.728 29.184 8.704 39.424-4.096 10.24-12.288 8.192-29.696-3.584-38.912zM313.856 286.72c0-109.568 89.088-198.656 198.656-198.656s198.656 89.088 198.656 198.656-89.088 198.656-198.656 198.656S313.856 395.776 313.856 286.72zM642.048 729.6c0 15.872 12.8 28.672 28.672 28.672h260.096c15.872 0 28.672-12.8 28.672-28.672 0-15.872-12.8-28.672-28.672-28.672H670.72c-15.872 0-28.672 12.8-28.672 28.672z m288.768 88.064H670.72c-15.872 0-28.672 12.8-28.672 28.672 0 15.872 12.8 28.672 28.672 28.672h260.096c15.872 0 28.672-12.8 28.672-28.672 0-15.872-12.8-28.672-28.672-28.672z m0 117.248H670.72c-15.872 0-28.672 12.8-28.672 28.672 0 15.872 12.8 28.672 28.672 28.672h260.096c15.872 0 28.672-12.8 28.672-28.672 0-15.872-12.8-28.672-28.672-28.672z" p-id="1339"></path></svg>