<?xml version="1.0" standalone="no"?><!DOCTYPE svg PUBLIC "-//W3C//DTD SVG 1.1//EN" "http://www.w3.org/Graphics/SVG/1.1/DTD/svg11.dtd"><svg t="1537270602422" class="icon" style="" viewBox="0 0 1024 1024" version="1.1" xmlns="http://www.w3.org/2000/svg" p-id="2048" xmlns:xlink="http://www.w3.org/1999/xlink" width="200" height="200"><defs><style type="text/css"></style></defs><path d="M499.104 83.392c239.68 0 434.656 194.976 434.656 434.624 0 239.648-195.008 434.656-434.656 434.656S64.448 757.664 64.448 518.016 259.456 83.392 499.104 83.392m0 933.28c274.944 0 498.656-223.712 498.656-498.656S774.08 19.392 499.104 19.392C224.16 19.392 0.448 243.072 0.448 518.016s223.712 498.656 498.656 498.656" p-id="2049" fill="#d81e06"></path><path d="M278.72 704.512h-0.032a31.968 31.968 0 1 0 45.248 45.28l186.496-186.56 186.528 186.56a31.968 31.968 0 1 0 45.248-45.248l-0.032-0.032-186.464-186.496 186.464-186.464 0.032-0.032a31.968 31.968 0 1 0-45.248-45.248l-186.528 186.496-186.496-186.496A31.968 31.968 0 1 0 278.72 331.52l186.464 186.464-186.464 186.496z" p-id="2050" fill="#d81e06"></path></svg>