<?xml version="1.0" standalone="no"?><!DOCTYPE svg PUBLIC "-//W3C//DTD SVG 1.1//EN" "http://www.w3.org/Graphics/SVG/1.1/DTD/svg11.dtd"><svg t="1533260890420" class="icon" style="" viewBox="0 0 1024 1024" version="1.1" xmlns="http://www.w3.org/2000/svg" p-id="11639" xmlns:xlink="http://www.w3.org/1999/xlink" width="200" height="200"><defs><style type="text/css"></style></defs><path d="M682.879 333.354c69.905 46.604 116.509 124.276 124.276 217.483 23.301 0 46.604 7.767 69.905 15.534-7.767-124.276-69.905-233.017-170.879-295.154-7.767 15.534-7.767 38.836-23.301 62.138zM636.276 845.991c-38.836 15.534-77.673 31.069-124.276 31.069s-85.439-7.767-124.276-31.069c-15.534 23.301-31.069 38.836-46.604 54.371 54.371 31.069 108.741 46.604 170.879 46.604 62.138 0 124.276-15.534 170.879-46.604-15.534-15.534-31.069-31.069-46.604-54.371zM216.846 550.836c7.767-93.206 54.371-170.879 124.276-217.483-7.767-23.301-15.534-46.604-23.301-69.905-100.974 62.138-163.111 178.646-170.879 302.922 23.301-7.767 46.604-15.534 69.905-15.534zM224.612 589.673c-85.439 0-155.344 69.905-155.344 155.344s69.905 155.344 155.344 155.344 155.344-69.905 155.344-155.344c0-85.439-69.905-155.344-155.344-155.344v0zM512 84.802c-85.439 0-155.344 69.905-155.344 155.344s69.905 155.344 155.344 155.344 155.344-69.905 155.344-155.344-69.905-155.344-155.344-155.344v0zM799.388 589.673c-85.439 0-155.344 69.905-155.344 155.344s69.905 155.344 155.344 155.344 155.344-69.905 155.344-155.344c0-85.439-69.905-155.344-155.344-155.344v0zM224.612 589.673c-85.439 0-155.344 69.905-155.344 155.344s69.905 155.344 155.344 155.344 155.344-69.905 155.344-155.344c0-85.439-69.905-155.344-155.344-155.344v0z" p-id="11640" fill="#ffffff"></path></svg>