<?xml version="1.0" standalone="no"?><!DOCTYPE svg PUBLIC "-//W3C//DTD SVG 1.1//EN" "http://www.w3.org/Graphics/SVG/1.1/DTD/svg11.dtd"><svg t="1533898318526" class="icon" style="" viewBox="0 0 1821 1024" version="1.1" xmlns="http://www.w3.org/2000/svg" p-id="69144" xmlns:xlink="http://www.w3.org/1999/xlink" width="113.8125" height="64"><defs><style type="text/css"></style></defs><path d="M498.688 867.328l3.584-45.056c0-2.048 3.584-46.592 8.704-93.696 3.072-28.16 5.632-50.688 8.704-68.096 5.12-33.792 10.24-47.104 19.968-56.832L1086.464 56.32c13.312-13.312 30.208-20.48 48.64-20.48 18.432-0.512 36.352 7.168 49.152 19.968L1315.84 187.392c13.312 13.312 20.48 30.72 19.968 49.152-0.512 18.432-7.68 35.84-20.48 48.64L768 832.512c-12.288 12.288-28.16 18.432-128.512 26.624-48.128 4.096-93.696 6.144-95.744 6.144l-45.056 2.048z m101.888-212.992c-4.608 18.944-10.752 73.728-15.872 129.024 56.832-3.584 113.152-8.704 133.12-12.8L1252.352 236.032l-116.736-116.736-535.04 535.04z" p-id="69145"></path><path d="M983.04 255.488l51.2-51.2 125.44 125.44-51.2 51.2L983.04 255.488z m311.296 729.088H526.848c-19.968 0-36.352-16.384-36.352-36.352 0-19.968 16.384-36.352 36.352-36.352h767.488c19.968 0 36.352 16.384 36.352 36.352 0 19.968-16.384 36.352-36.352 36.352z" p-id="69146"></path></svg>