<?xml version="1.0" standalone="no"?><!DOCTYPE svg PUBLIC "-//W3C//DTD SVG 1.1//EN" "http://www.w3.org/Graphics/SVG/1.1/DTD/svg11.dtd"><svg t="1533635392110" class="icon" style="" viewBox="0 0 1024 1024" version="1.1" xmlns="http://www.w3.org/2000/svg" p-id="13888" xmlns:xlink="http://www.w3.org/1999/xlink" width="64" height="64"><defs><style type="text/css"></style></defs><path d="M594.192384 380.22144C594.061312 379.29984 593.79712 378.773504 593.534976 378.24512 593.006592 376.797184 592.611328 376.006656 591.95392 375.216128L559.286272 333.477888C559.02208 333.082624 558.626816 332.82048 558.364672 332.556288 554.412032 329.396224 547.956736 329.13408 543.61088 332.425216L507.516928 359.81312 471.160832 332.425216C465.893376 328.607744 457.990144 329.660416 454.168576 334.794752L422.160384 377.32352C421.369856 378.24512 420.974592 378.773504 420.712448 379.430912L419.657728 381.800448C419.262464 383.512576 419.131392 384.434176 419.131392 385.091584 419.131392 386.408448 419.262464 387.330048 419.395584 387.856384L420.184064 390.227968C420.315136 390.490112 420.448256 390.754304 420.579328 391.016448 420.974592 391.675904 421.238784 392.20224 421.634048 392.728576L497.770496 490.55744C498.956288 492.138496 500.668416 493.45536 502.380544 494.112768 503.435264 494.639104 503.9616 494.770176 504.356864 494.903296 507.254784 495.560704 508.309504 495.429632 510.021632 494.903296 511.074304 494.639104 511.995904 494.37696 512.391168 494.112768 513.57696 493.586432 514.367488 492.929024 515.289088 492.40064 515.55328 492.007424 516.343808 491.347968 516.739072 490.69056L591.427584 390.885376C592.218112 389.832704 592.611328 389.306368 592.87552 388.777984L593.79712 386.803712C594.323456 385.75104 594.587648 384.434176 594.587648 382.722048 594.587648 381.93152 594.456576 381.14304 594.192384 380.22144ZM506.990592 463.302656 446.398464 385.224704 466.15552 359.022592 498.823168 383.512576C500.00896 384.565248 500.537344 384.960512 500.93056 385.091584L502.511616 385.882112C505.278464 387.067904 507.78112 387.198976 509.626368 386.67264 510.67904 386.408448 511.205376 386.277376 511.864832 386.013184 512.524288 385.75104 513.312768 385.355776 514.63168 384.303104L548.747264 358.889472 567.189504 382.85312 506.990592 463.302656ZM501.06368 195.35872 500.14208 196.018176C500.799488 195.622912 501.458944 195.227648 502.1184 194.832384 501.723136 194.832384 501.458944 195.094528 501.06368 195.35872ZM594.192384 380.22144C594.061312 379.29984 593.79712 378.773504 593.534976 378.24512 593.006592 376.797184 592.611328 376.006656 591.95392 375.216128L559.286272 333.477888C559.02208 333.082624 558.626816 332.82048 558.364672 332.556288 554.412032 329.396224 547.956736 329.13408 543.61088 332.425216L507.516928 359.81312 471.160832 332.425216C465.893376 328.607744 457.990144 329.660416 454.168576 334.794752L422.160384 377.32352C421.369856 378.24512 420.974592 378.773504 420.712448 379.430912L419.657728 381.800448C419.262464 383.512576 419.131392 384.434176 419.131392 385.091584 419.131392 386.408448 419.262464 387.330048 419.395584 387.856384L420.184064 390.227968C420.315136 390.490112 420.448256 390.754304 420.579328 391.016448 420.974592 391.675904 421.238784 392.20224 421.634048 392.728576L497.770496 490.55744C498.956288 492.138496 500.668416 493.45536 502.380544 494.112768 503.435264 494.639104 503.9616 494.770176 504.356864 494.903296 507.254784 495.560704 508.309504 495.429632 510.021632 494.903296 511.074304 494.639104 511.995904 494.37696 512.391168 494.112768 513.57696 493.586432 514.367488 492.929024 515.289088 492.40064 515.55328 492.007424 516.343808 491.347968 516.739072 490.69056L591.427584 390.885376C592.218112 389.832704 592.611328 389.306368 592.87552 388.777984L593.79712 386.803712C594.323456 385.75104 594.587648 384.434176 594.587648 382.722048 594.587648 381.93152 594.456576 381.14304 594.192384 380.22144ZM506.990592 463.302656 446.398464 385.224704 466.15552 359.022592 498.823168 383.512576C500.00896 384.565248 500.537344 384.960512 500.93056 385.091584L502.511616 385.882112C505.278464 387.067904 507.78112 387.198976 509.626368 386.67264 510.67904 386.408448 511.205376 386.277376 511.864832 386.013184 512.524288 385.75104 513.312768 385.355776 514.63168 384.303104L548.747264 358.889472 567.189504 382.85312 506.990592 463.302656ZM594.192384 380.22144C594.061312 379.29984 593.79712 378.773504 593.534976 378.24512 593.006592 376.797184 592.611328 376.006656 591.95392 375.216128L559.286272 333.477888C559.02208 333.082624 558.626816 332.82048 558.364672 332.556288 554.412032 329.396224 547.956736 329.13408 543.61088 332.425216L507.516928 359.81312 471.160832 332.425216C465.893376 328.607744 457.990144 329.660416 454.168576 334.794752L422.160384 377.32352C421.369856 378.24512 420.974592 378.773504 420.712448 379.430912L419.657728 381.800448C419.262464 383.512576 419.131392 384.434176 419.131392 385.091584 419.131392 386.408448 419.262464 387.330048 419.395584 387.856384L420.184064 390.227968C420.315136 390.490112 420.448256 390.754304 420.579328 391.016448 420.974592 391.675904 421.238784 392.20224 421.634048 392.728576L497.770496 490.55744C498.956288 492.138496 500.668416 493.45536 502.380544 494.112768 503.435264 494.639104 503.9616 494.770176 504.356864 494.903296 507.254784 495.560704 508.309504 495.429632 510.021632 494.903296 511.074304 494.639104 511.995904 494.37696 512.391168 494.112768 513.57696 493.586432 514.367488 492.929024 515.289088 492.40064 515.55328 492.007424 516.343808 491.347968 516.739072 490.69056L591.427584 390.885376C592.218112 389.832704 592.611328 389.306368 592.87552 388.777984L593.79712 386.803712C594.323456 385.75104 594.587648 384.434176 594.587648 382.722048 594.587648 381.93152 594.456576 381.14304 594.192384 380.22144ZM506.990592 463.302656 446.398464 385.224704 466.15552 359.022592 498.823168 383.512576C500.00896 384.565248 500.537344 384.960512 500.93056 385.091584L502.511616 385.882112C505.278464 387.067904 507.78112 387.198976 509.626368 386.67264 510.67904 386.408448 511.205376 386.277376 511.864832 386.013184 512.524288 385.75104 513.312768 385.355776 514.63168 384.303104L548.747264 358.889472 567.189504 382.85312 506.990592 463.302656ZM880.693248 441.841664 528.594944 200.361984 522.40384 196.149248C516.212736 191.934464 508.440576 191.67232 502.1184 194.832384 501.458944 195.227648 500.799488 195.622912 500.14208 196.018176 499.482624 196.411392 498.823168 196.939776 498.16576 197.466112L145.143808 442.630144C136.185856 448.8192 133.947392 461.197312 140.138496 470.14912 143.958016 475.67872 150.14912 478.57664 156.471296 478.57664 160.290816 478.57664 164.243456 477.52192 167.667712 475.021312L226.154496 434.466816 226.154496 813.934592C226.154496 824.731648 234.979328 833.683456 245.911552 833.683456L778.870784 833.683456C789.805056 833.683456 798.629888 824.731648 798.629888 813.934592L798.629888 433.414144 858.300416 474.361856C861.724672 476.73344 865.54624 477.786112 869.496832 477.786112 875.687936 477.786112 881.87904 474.89024 885.69856 469.22752 891.891712 460.273664 889.6512 448.028672 880.693248 441.841664ZM555.597824 794.052608 458.121216 794.052608 458.121216 588.781568 555.597824 588.781568 555.597824 794.052608ZM759.11168 407.212032 759.11168 794.18368 595.116032 794.18368 595.116032 569.032704C595.116032 558.104576 586.289152 549.281792 575.356928 549.281792L438.362112 549.281792C427.429888 549.281792 418.603008 558.104576 418.603008 569.032704L418.603008 794.18368 265.670656 794.18368 265.670656 407.212032C265.670656 407.08096 265.670656 407.08096 265.670656 406.949888L511.338496 236.439552 759.2448 406.421504C759.11168 406.685696 759.11168 406.949888 759.11168 407.212032Z" p-id="13889"></path></svg>