<?xml version="1.0" standalone="no"?><!DOCTYPE svg PUBLIC "-//W3C//DTD SVG 1.1//EN" "http://www.w3.org/Graphics/SVG/1.1/DTD/svg11.dtd"><svg t="1533260779482" class="icon" style="" viewBox="0 0 1024 1024" version="1.1" xmlns="http://www.w3.org/2000/svg" p-id="11197" xmlns:xlink="http://www.w3.org/1999/xlink" width="200" height="200"><defs><style type="text/css"></style></defs><path d="M763.424 912H260.576A99.312 99.312 0 0 1 160 814V324a99.312 99.312 0 0 1 100.576-98H336v-48.992h67.728A134.56 134.56 0 0 1 512 128a134.576 134.576 0 0 1 108.272 49.008H688v48.992h75.424A99.312 99.312 0 0 1 864 324v490A99.312 99.312 0 0 1 763.424 912z m-125.712-686h-55.872c0-27.056-31.264-48.992-69.84-48.992s-69.84 21.936-69.84 48.992h-55.872v98h251.424v-98z m176 98a49.6 49.6 0 0 0-50.288-49.008H688v98H336v-97.984h-75.424a49.6 49.6 0 0 0-50.288 49.008v489.984a49.6 49.6 0 0 0 50.288 49.008h502.848a49.6 49.6 0 0 0 50.288-48.992V324zM688 765.008H336a24.512 24.512 0 1 1 0-48.992h352a24.512 24.512 0 1 1 0 48.992z m0-122.496H336a24.512 24.512 0 1 1 0-49.008h352a24.512 24.512 0 1 1 0 48.992z m0-122.512H336a24.512 24.512 0 1 1 0-49.008h352a24.512 24.512 0 1 1 0 49.008z" p-id="11198" fill="#ffffff"></path></svg>