<?xml version="1.0" standalone="no"?><!DOCTYPE svg PUBLIC "-//W3C//DTD SVG 1.1//EN" "http://www.w3.org/Graphics/SVG/1.1/DTD/svg11.dtd"><svg t="1536544576586" class="icon" style="" viewBox="0 0 1024 1024" version="1.1" xmlns="http://www.w3.org/2000/svg" p-id="3213" xmlns:xlink="http://www.w3.org/1999/xlink" width="64" height="64"><defs><style type="text/css"></style></defs><path d="M530.996934 131.338133c-15.733765-7.267165-34.360285-4.79774-47.589348 6.314673L267.332897 319.50832H136.665036c-24.69425 0-44.73187 20.072898-44.73187 44.73187V659.689255c0 24.69425 20.072898 44.73187 44.73187 44.73187H201.787301V649.45878H146.930789v-274.988115h140.510283l214.522479-180.550246v636.05333l-206.902539-174.129742-35.383333 42.050781 223.729907 188.311296c8.078548 6.808558 18.309023 10.547973 28.78644 10.547973 6.596893 0 12.911565-1.446378 18.838185-4.162745 15.733765-7.302443 25.893685-23.212595 25.893686-40.569126V171.907259c-0.035278-17.285975-10.15992-33.196128-25.928963-40.569126z m133.878113 160.124574l-35.453887 42.05078c53.551245 45.119923 84.277948 111.194681 84.277948 181.185242 0 67.45058-28.92755 131.902573-79.268543 176.810831l36.54749 41.06301c62.053123-55.350398 97.683398-134.795328 97.683398-217.873841 0-86.253488-37.81748-167.603404-103.786406-223.236022z m92.779826-83.925173l-27.93978 47.377683c90.874841 53.48069 147.354119 152.187136 147.354118 257.525752 0 104.774176-56.02067 203.163124-146.154683 256.784924l28.08089 47.201295c106.749716-63.428945 173.036139-179.950529 173.036139-304.021497 0.035278-124.705963-66.780308-241.509767-174.376684-304.868157z" fill="" p-id="3214"></path><path d="M63.970808 867.678341L931.002512 122.62953l28.921906 33.657204L92.892714 901.335193z" fill="" p-id="3215"></path></svg>