<?xml version="1.0" standalone="no"?><!DOCTYPE svg PUBLIC "-//W3C//DTD SVG 1.1//EN" "http://www.w3.org/Graphics/SVG/1.1/DTD/svg11.dtd"><svg t="1536542338482" class="icon" style="" viewBox="0 0 1024 1024" version="1.1" xmlns="http://www.w3.org/2000/svg" p-id="2475" xmlns:xlink="http://www.w3.org/1999/xlink" width="64" height="64"><defs><style type="text/css"></style></defs><path d="M527.544 114.855c-10.874-5.363-23.81-3.89-33.329 3.8-0.412 0.369-46.62 37.854-97.6 76.177-88.672 66.688-114.517 77.814-119.762 79.596H151.198c-0.618 0-1.237 0.088-1.856 0.088H92.614c-14.293 0-25.874 11.847-25.874 26.449V723.12c0 14.616 11.58 26.433 25.874 26.433h204.808c5.128 1.916 29.528 13.438 108.21 78.947 45.795 38.103 86.875 75.323 87.286 75.706 5.894 5.333 13.379 8.132 20.922 8.132a31.08 31.08 0 0 0 12.907-2.83c11.318-5.215 18.596-16.678 18.596-29.351V143.823c0.03-12.363-6.894-23.606-17.8-28.968z m-33.623 714c-13.97-12.024-29.529-25.224-45.441-38.397-105.087-86.904-131.078-94.153-148.7-94.153-0.353 0-0.677 0.059-1.002 0.059-0.354 0-0.707-0.06-1.031-0.06H140.53c-18.152 0-22.338-5.246-22.338-23.869V348.483c0-12.627 1.474-20.54 16.355-20.54h143.13c17.151 0 43.496-7.19 158.425-93.15 20.48-15.325 40.49-30.707 57.818-44.234v638.295z m309.57-317.041c0-81.997-43.556-153.518-108.298-192.004-2.919-1.576-9.872-4.64-14.705-4.64-14.351 0-25.992 11.904-25.992 26.58 0 9.843 5.129 18.625 12.908 23.207 50.038 29.041 83.809 83.898 83.809 146.858 0 64.081-34.92 119.776-86.463 148.42-7.483 4.686-12.435 13.143-12.435 22.78 0 14.675 11.669 26.581 26.022 26.581 6.1 0.06 13.35-3.624 13.35-3.624 66.687-37.959 111.803-110.657 111.803-194.158z m-30.029-327.118c-4.833-2.948-9.636-5.35-15.5-5.35-14.292 0-25.903 11.832-25.903 26.45 0 10.52 6.13 18.976 14.793 23.795 95.067 56.639 159.015 161.784 159.015 282.296 0 120.41-63.858 225.497-158.838 282.166-8.309 4.596-15.5 13.348-15.5 24.163 0 14.617 11.612 26.434 25.875 26.434 5.775 0 10.342-2.239 15.324-5.186 110.33-65.716 184.532-187.776 184.532-327.577-0.002-139.579-73.91-261.358-183.798-327.191z" p-id="2476"></path></svg>