<?xml version="1.0" standalone="no"?><!DOCTYPE svg PUBLIC "-//W3C//DTD SVG 1.1//EN" "http://www.w3.org/Graphics/SVG/1.1/DTD/svg11.dtd"><svg t="1533261455426" class="icon" style="" viewBox="0 0 1024 1024" version="1.1" xmlns="http://www.w3.org/2000/svg" p-id="11786" xmlns:xlink="http://www.w3.org/1999/xlink" width="200" height="200"><defs><style type="text/css"></style></defs><path d="M511.999 232.825l-365.408 317.822v326.758c0 36.541 36.54 73.083 73.082 73.083h584.651c36.541 0 73.083-36.541 73.083-73.083v-326.758l-365.409-317.822zM621.621 840.865h-219.244v-182.704c0-40.357 32.722-73.082 73.082-73.082h73.082c40.359 0 73.082 32.723 73.082 73.082v182.704z" p-id="11787" fill="#FCD222"></path><path d="M1021.179 523.385c-5.494 15.131-19.663 25.155-35.613 25.155h-54.884l-418.683-364.138-418.685 364.139h-54.882c-15.951 0-30.118-10.025-35.614-25.155-5.531-15.167-1.213-32.189 10.921-42.679l445.303-387.568c14.989-13.059 33.974-19.626 52.957-19.626s37.968 6.565 52.957 19.626l129.746 112.923v-59.467c0-20.197 16.343-36.54 36.54-36.54h36.541c20.196 0 36.54 16.343 36.54 36.54v154.869l205.936 179.242c12.132 10.491 16.449 27.514 10.918 42.679z" p-id="11788" fill="#FCD222"></path></svg>