<?xml version="1.0" standalone="no"?><!DOCTYPE svg PUBLIC "-//W3C//DTD SVG 1.1//EN" "http://www.w3.org/Graphics/SVG/1.1/DTD/svg11.dtd"><svg t="1531704451098" class="icon" style="" viewBox="0 0 1024 1024" version="1.1" xmlns="http://www.w3.org/2000/svg" p-id="2802" xmlns:xlink="http://www.w3.org/1999/xlink" width="81" height="81"><defs><style type="text/css"></style></defs><path d="M795.045158 383.134846h-31.45457v-121.874966c0-146.520679-104.40588-261.25988-252.750086-261.25988-148.936725 0-250.436198 117.185895-250.436198 261.25988v121.874966h-31.45457c-69.370658 0-125.787632 57.269996-125.787632 127.70821v383.088875c0 70.443322 56.422082 127.713318 125.787632 127.713318h566.095424c69.370658 0 125.797848-57.269996 125.797848-127.713318V510.848164c0-70.438214-56.42719-127.713318-125.797848-127.713318z m-471.757254-121.874966c0-108.803799 73.288433-197.400667 187.552598-197.400667 113.07402 0 189.846054 86.706938 189.846054 197.400667v121.874966H323.287904v-121.874966z m534.640854 632.672051c0 35.224215-28.205933 63.854105-62.8836 63.854105H228.949734c-34.672559 0-62.904032-28.624782-62.904032-63.854105V510.848164c0-35.219107 28.231473-63.854105 62.904032-63.854105h566.095424c34.672559 0 62.8836 28.634998 62.8836 63.854105v383.083767zM511.984676 574.656298c-34.718531 0-62.8836 28.624782-62.8836 63.900076 0 23.639453 12.662533 44.260125 31.45457 55.303448v104.339477c0 17.612107 14.067211 31.878527 31.42903 31.878527 17.382251 0 31.45457-14.26642 31.45457-31.878527v-104.349693a63.966479 63.966479 0 0 0 31.45457-55.293232c0-35.270186-28.159962-63.900076-62.90914-63.900076z" p-id="2803" fill="#000000"></path></svg>