<?xml version="1.0" standalone="no"?><!DOCTYPE svg PUBLIC "-//W3C//DTD SVG 1.1//EN" "http://www.w3.org/Graphics/SVG/1.1/DTD/svg11.dtd"><svg t="1531704338401" class="icon" style="" viewBox="0 0 1024 1024" version="1.1" xmlns="http://www.w3.org/2000/svg" p-id="2074" xmlns:xlink="http://www.w3.org/1999/xlink" width="81" height="81"><defs><style type="text/css"></style></defs><path d="M511.936 0c-143.74386 0-260.223746 114.559888-260.159746 255.99975 0 141.312862 116.415886 255.99975 260.159746 255.99975 143.74386 0 260.096746-114.687888 260.096746-255.99975C772.159746 114.559888 655.67986 0 511.936 0L511.936 0zM620.287894 597.312417 403.584106 597.312417c-185.663819 0-336.191672 148.030855-336.191672 330.622677l0 21.376979c0 74.622927 150.527853 74.687927 336.191672 74.687927l216.895788 0c185.600819 0 336.191672-2.751997 336.191672-74.687927l0-21.376979C956.543566 745.343272 806.079713 597.312417 620.287894 597.312417L620.287894 597.312417z" p-id="2075" fill="#000000"></path></svg>