<?xml version="1.0" standalone="no"?><!DOCTYPE svg PUBLIC "-//W3C//DTD SVG 1.1//EN" "http://www.w3.org/Graphics/SVG/1.1/DTD/svg11.dtd"><svg t="1533266098309" class="icon" style="" viewBox="0 0 1024 1024" version="1.1" xmlns="http://www.w3.org/2000/svg" p-id="24981" xmlns:xlink="http://www.w3.org/1999/xlink" width="64" height="64"><defs><style type="text/css"></style></defs><path d="M582.481749 191.449333l0 58.100256 121.847116 0-1.378393 1.483794L584.866053 378.154619c-91.828428-63.971987-231.867882-55.803957-315.133284 33.862225-90.593298 97.613178-84.235496 251.427356 13.421684 342.063633C380.722606 844.718801 532.771581 838.008982 623.452883 740.395804c83.264379-89.666182 90.063225-221.450624 7.858992-319.107805l125.558647-135.288243 0 137.936559 58.144258 0L815.01478 191.449333 582.481749 191.449333zM578.774311 698.983625c-66.841338 72.006987-179.77341 76.201519-251.824399 9.359158-71.962985-66.883293-76.201519-179.861414-9.272177-251.868401 66.841338-71.961962 179.774433-76.200496 251.825422-9.31618C641.464095 514.000564 645.614625 626.977661 578.774311 698.983625z" p-id="24982"></path></svg>