<?xml version="1.0" standalone="no"?><!DOCTYPE svg PUBLIC "-//W3C//DTD SVG 1.1//EN" "http://www.w3.org/Graphics/SVG/1.1/DTD/svg11.dtd"><svg t="1534476231993" class="icon" style="" viewBox="0 0 1024 1024" version="1.1" xmlns="http://www.w3.org/2000/svg" p-id="6783" xmlns:xlink="http://www.w3.org/1999/xlink" width="200" height="200"><defs><style type="text/css"></style></defs><path d="M384 1024A384 384 0 1 1 384 256a384 384 0 0 1 0 768z m-1.92-80.512a304 304 0 1 0 0-608 304 304 0 0 0 0 608z" p-id="6784" fill="#1a5ed9"></path><path d="M970.368 137.92v224.128a42.176 42.176 0 1 1-84.352 0V197.632L675.968 407.68l-59.584-59.648 210.112-210.112h-164.224a42.176 42.176 0 1 1 0-84.352h308.352v84.352h-0.256z" p-id="6785" fill="#1a5ed9"></path></svg>