<?xml version="1.0" standalone="no"?><!DOCTYPE svg PUBLIC "-//W3C//DTD SVG 1.1//EN" "http://www.w3.org/Graphics/SVG/1.1/DTD/svg11.dtd"><svg t="1533535199813" class="icon" style="" viewBox="0 0 1024 1024" version="1.1" xmlns="http://www.w3.org/2000/svg" p-id="16114" xmlns:xlink="http://www.w3.org/1999/xlink" width="200" height="200"><defs><style type="text/css"></style></defs><path d="M386.659829 399.531486c-0.088004 68.694545 57.68377 125.8288 126.537951 125.156488 68.8726-0.655939 125.968993-57.082066 125.968993-124.46678 0.01842-67.666122-57.115835-123.772978-126.165468-123.897821C443.502441 276.182156 386.757043 331.509253 386.659829 399.531486L386.659829 399.531486M512.383228 947.105702c-91.798752-123.368772-186.458669-242.130619-271.725658-367.109052C103.587752 379.101177 226.705813 116.608811 463.17141 80.827887 670.20365 49.490158 848.280418 209.434963 840.276117 415.979086c-2.477424 63.878866-23.193235 121.82665-61.241806 173.294858C694.4601 703.664228 609.246323 817.595047 524.283256 931.703921 520.881786 936.287309 517.304308 940.748924 512.383228 947.105702L512.383228 947.105702M512.383228 947.105702 512.383228 947.105702z" p-id="16115"></path></svg>