<?xml version="1.0" standalone="no"?><!DOCTYPE svg PUBLIC "-//W3C//DTD SVG 1.1//EN" "http://www.w3.org/Graphics/SVG/1.1/DTD/svg11.dtd"><svg t="1536724454239" class="icon" style="" viewBox="0 0 1024 1024" version="1.1" xmlns="http://www.w3.org/2000/svg" p-id="5891" xmlns:xlink="http://www.w3.org/1999/xlink" width="200" height="200"><defs><style type="text/css"></style></defs><path d="M512 0C228.266667 0 0 228.266667 0 512c0 283.733333 228.266667 512 512 512 283.733333 0 512-228.266667 512-512C1024 228.266667 795.733333 0 512 0zM832 384 492.8 723.2C469.333333 746.666667 426.666667 746.666667 403.2 723.2L192 512c0 0-32-32 0-64s64 0 64 0l192 192 320-320c0 0 32-32 64 0S832 384 832 384z" p-id="5892" fill="#28c76a"></path></svg>