<?xml version="1.0" standalone="no"?><!DOCTYPE svg PUBLIC "-//W3C//DTD SVG 1.1//EN" "http://www.w3.org/Graphics/SVG/1.1/DTD/svg11.dtd"><svg t="1536026260157" class="icon" style="" viewBox="0 0 1024 1024" version="1.1" xmlns="http://www.w3.org/2000/svg" p-id="43720" xmlns:xlink="http://www.w3.org/1999/xlink" width="200" height="200"><defs><style type="text/css"></style></defs><path d="M934.4 262.4l0 544 0 0c-6.4 121.6-192 217.6-416 217.6-230.4 0-409.6-96-416-217.6l0 0L102.4 262.4c0-12.8 0-19.2 0-32C89.6 102.4 275.2 0 512 0c236.8 0 422.4 102.4 422.4 230.4C934.4 243.2 934.4 256 934.4 262.4zM512 76.8c-204.8 0-358.4 83.2-358.4 160 0 76.8 153.6 160 358.4 160 204.8 0 358.4-83.2 358.4-160C870.4 160 716.8 76.8 512 76.8zM870.4 364.8c-76.8 64-211.2 102.4-364.8 102.4-147.2 0-288-38.4-358.4-102.4l0 38.4C166.4 486.4 332.8 550.4 512 550.4c179.2 0 345.6-70.4 364.8-147.2L876.8 364.8zM870.4 512c-70.4 64-211.2 102.4-364.8 102.4C358.4 614.4 224 569.6 147.2 512l0 32c19.2 83.2 185.6 147.2 358.4 147.2 179.2 0 345.6-70.4 364.8-147.2L870.4 512zM870.4 646.4c-70.4 64-211.2 102.4-364.8 102.4-147.2 0-288-38.4-358.4-102.4l0 32c19.2 83.2 185.6 147.2 358.4 147.2 179.2 0 345.6-70.4 364.8-147.2L870.4 646.4zM870.4 806.4l0-19.2c-70.4 64-211.2 102.4-364.8 102.4-147.2 0-288-38.4-358.4-102.4l0 19.2 0 0C160 889.6 326.4 960 512 960 691.2 960 864 889.6 870.4 806.4L870.4 806.4zM588.8 230.4C608 236.8 620.8 256 620.8 268.8c0 25.6-12.8 38.4-38.4 51.2C563.2 326.4 544 332.8 524.8 332.8l0 25.6L505.6 358.4 505.6 332.8c-25.6 0-51.2-6.4-64-12.8C416 307.2 403.2 294.4 403.2 268.8l57.6 0c0 12.8 6.4 19.2 6.4 25.6 6.4 6.4 19.2 12.8 32 12.8L499.2 243.2 486.4 236.8C460.8 236.8 441.6 230.4 428.8 217.6 416 211.2 409.6 198.4 409.6 185.6c0-6.4 0-19.2 6.4-25.6 6.4-6.4 12.8-12.8 19.2-19.2C448 134.4 454.4 134.4 467.2 128 480 128 486.4 128 505.6 128L505.6 108.8l19.2 0L524.8 128C544 128 563.2 134.4 576 140.8c25.6 12.8 38.4 25.6 38.4 44.8L556.8 185.6c0-6.4-6.4-12.8-6.4-19.2C544 160 537.6 160 524.8 160l0 51.2C556.8 217.6 582.4 224 588.8 230.4zM524.8 300.8c12.8 0 19.2 0 25.6-6.4 6.4-6.4 12.8-12.8 12.8-19.2 0-6.4-6.4-12.8-12.8-19.2C544 256 537.6 249.6 524.8 249.6L524.8 300.8zM505.6 160c-12.8 0-19.2 0-25.6 6.4C467.2 166.4 467.2 172.8 467.2 179.2c0 6.4 6.4 12.8 12.8 19.2 6.4 0 12.8 6.4 25.6 6.4L505.6 160z" p-id="43721"></path></svg>