<?xml version="1.0" standalone="no"?><!DOCTYPE svg PUBLIC "-//W3C//DTD SVG 1.1//EN" "http://www.w3.org/Graphics/SVG/1.1/DTD/svg11.dtd"><svg t="1536026408508" class="icon" style="" viewBox="0 0 1024 1024" version="1.1" xmlns="http://www.w3.org/2000/svg" p-id="46668" xmlns:xlink="http://www.w3.org/1999/xlink" width="200" height="200"><defs><style type="text/css"></style></defs><path d="M390.90176 261.440853c4.304213 8.188587 12.83072 13.318827 22.104747 13.318827l188.002987 0c8.820053 0 17.005227-4.64896 21.507413-12.250453l114.449067-193.16736c4.59776-7.765333 4.676267-17.349973 0.22528-25.111893-4.450987-7.830187-12.735147-12.670293-21.732693-12.670293L311.309653 31.55968c-8.772267 0-16.892587 4.614827-21.425493 12.086613-4.51584 7.53664-4.788907 16.861867-0.699733 24.593067L390.90176 261.440853zM671.604053 81.59232l-84.834987 143.172267-158.651733 0-75.38688-143.172267L671.604053 81.59232zM920.763733 769.1776c-14.994773-60.392107-44.557653-115.42528-73.127253-168.639147l-6.64576-12.346027c-39.325013-73.61536-76.066133-139.434667-127.20128-199.570773-2.4064-2.822827-5.003947-6.0416-7.7824-9.4208-20.401493-24.978773-48.37376-59.190613-81.933653-69.423787-14.16192-4.32128-32.095573-6.4-54.852267-6.4-19.705173 0-40.055467 1.498453-59.743573 2.891093-16.339627 1.204907-31.802027 2.341547-44.018347 2.341547-8.041813 0-16.909653-0.52224-26.036907-1.0752-10.738347-0.6144-21.783893-1.266347-32.436907-1.266347-12.8512 0-23.620267 0.945493-32.894293 2.82624-51.899733 10.397013-84.906667 65.49504-106.734933 101.946027l-2.259627 3.734187c-7.246507 11.953493-16.01536 23.227733-25.306453 35.150507-11.38688 14.650027-23.16288 29.75744-32.566613 46.974293-8.850773 16.31232-15.301973 32.9728-21.541547 49.087147-4.744533 12.27776-9.239893 23.9104-14.667093 35.249493-3.167573 6.529707-6.4 13.028693-9.618773 19.490133-13.677227 27.48416-27.839147 55.944533-36.98688 87.033173-17.722027 59.938133-34.304 143.202987-12.83072 199.437653 31.542613 82.681173 169.64608 91.644587 227.88096 91.644587l1.785173 0c40.772267 0 81.67424 2.112853 121.207467 4.191573 39.92576 2.07872 81.186133 4.256427 122.671787 4.256427 13.759147 0 27.579733-0.22528 41.50272-0.812373 63.901013-2.501973 143.4112-5.618347 204.929707-28.521813C905.284267 930.638507 937.734827 836.491947 920.763733 769.1776zM814.124373 911.080107c-54.05696 20.11136-129.133227 23.067307-189.463893 25.439573-53.896533 2.10944-107.513173-0.682667-159.576747-3.413333-40.20224-2.112853-81.752747-4.287147-123.839147-4.287147l-2.12992 0c-78.71488 0-165.147307-18.387627-180.821333-59.450027-12.68736-33.232213-7.553707-94.245547 14.083413-167.471787 7.912107-26.90048 20.466347-52.14208 33.785173-78.87872 3.300693-6.62528 6.597973-13.253973 9.908907-20.077227 6.301013-13.18912 11.369813-26.279253 16.26112-38.918827 5.911893-15.332693 11.516587-29.822293 18.793813-43.175253 7.437653-13.57824 17.493333-26.507947 28.132693-40.185173 9.74848-12.537173 19.817813-25.531733 28.634453-39.990613l2.3552-3.93216c16.26112-27.12576 43.4688-72.574293 73.69728-78.650027 12.21632-2.43712 33.30048-1.723733 52.578987-0.617813 10.154667 0.587093 19.995307 1.13664 28.931413 1.13664 14.032213 0 30.358187-1.170773 47.65696-2.46784 18.793813-1.334613 38.219093-2.761387 56.10496-2.761387 17.5104 0 31.092053 1.426773 40.270507 4.256427 19.03616 5.782187 42.36288 34.338133 57.79456 53.248 2.952533 3.57376 5.730987 6.95296 8.3456 10.069333 47.98464 56.429227 83.31264 119.811413 121.275733 190.825813l6.656 12.445013c28.39552 52.790613 55.179947 102.690133 68.67968 157.105493C882.445653 821.643947 864.853333 892.27264 814.124373 911.080107zM530.40128 620.25728c-46.32576-19.165867-66.02752-33.037653-66.02752-60.719787 0-21.213867 15.4624-45.74208 56.528213-45.74208 34.02752 0 55.77728 11.728213 67.003733 18.097493l13.335893-35.15392c-15.4624-9.028267-37.26336-17.575253-69.229227-18.64704l0-51.623253-32.976213 0 0 53.736107c-48.971093 8.024747-80.356693 41.58464-80.356693 85.828267 0 46.26432 33.49504 70.7584 87.79776 92.03712 39.406933 15.98464 60.09856 34.082133 60.09856 63.382187 0 30.375253-25.470293 52.176213-63.317333 52.176213-29.856427 0-57.483947-10.103467-76.731733-22.9376l-12.704427 35.76832c18.650453 13.223253 50.551467 22.869333 81.493333 23.38816l0 53.797547 33.49504 0 0-55.38816c54.852267-9.096533 84.159147-48.469333 84.159147-90.54208C612.9664 670.32064 585.270613 642.676053 530.40128 620.25728z" p-id="46669"></path></svg>