<?xml version="1.0" standalone="no"?><!DOCTYPE svg PUBLIC "-//W3C//DTD SVG 1.1//EN" "http://www.w3.org/Graphics/SVG/1.1/DTD/svg11.dtd"><svg t="1536913227675" class="icon" style="" viewBox="0 0 1024 1024" version="1.1" xmlns="http://www.w3.org/2000/svg" p-id="3898" xmlns:xlink="http://www.w3.org/1999/xlink" width="200" height="200"><defs><style type="text/css"></style></defs><path d="M753.6 611.52a32 32 0 1 1 28.8 56.96l-256 128a32 32 0 0 1-28.8 0l-256-128a32 32 0 0 1 28.8-56.96L512 732.16zM753.6 323.52a32 32 0 1 1 28.8 56.96l-256 128a32 32 0 0 1-28.8 0l-256-128a32 32 0 1 1 28.8-56.96L512 444.16z" p-id="3899" fill="#999999"></path></svg>