<?xml version="1.0" standalone="no"?><!DOCTYPE svg PUBLIC "-//W3C//DTD SVG 1.1//EN" "http://www.w3.org/Graphics/SVG/1.1/DTD/svg11.dtd"><svg t="1533549589229" class="icon" style="" viewBox="0 0 1024 1024" version="1.1" xmlns="http://www.w3.org/2000/svg" p-id="2906" xmlns:xlink="http://www.w3.org/1999/xlink" width="64" height="64"><defs><style type="text/css"></style></defs><path d="M740.2 954h-533C138.5 954 99 914.7 99 845.9V209.1c0-65.3 36.5-98.1 108.2-98.1h398c18.6 0 33.7 14.9 33.7 33.5s-15 33.5-33.7 33.5h-398c-40.6 0-41.2 8.6-41.2 31.1v636.7c0 31.3 10.1 41.1 41.2 41.1h533c25.5 0 33.8-3.4 33.8-41.1V380.6c0-18.6 15.4-33.7 34-33.7s34 15.1 34 33.7v465.2c0 89.6-55.6 108.2-101.8 108.2z" p-id="2907"></path><path d="M504 415H301.6c-18.6 0-33.7-15.4-33.7-34s15.1-34 33.7-34H504c18.6 0 33.7 15.4 33.7 34s-15.1 34-33.7 34zM639 617H301.6c-18.6 0-33.7-15.4-33.7-34s15.1-34 33.7-34H639c18.6 0 33.7 15.4 33.7 34s-15.1 34-33.7 34zM651.4 383c-8.4 0-16.8-3.1-23.3-9.4-13.4-12.9-13.9-34.2-1-47.7L867.7 74.7c12.9-13.4 34.3-14 47.7-1 13.4 12.9 13.9 34.2 1 47.7L675.7 372.6c-6.6 7-15.4 10.4-24.3 10.4z" p-id="2908"></path></svg>