<?xml version="1.0" standalone="no"?><!DOCTYPE svg PUBLIC "-//W3C//DTD SVG 1.1//EN" "http://www.w3.org/Graphics/SVG/1.1/DTD/svg11.dtd"><svg t="1533287904051" class="icon" style="" viewBox="0 0 1024 1024" version="1.1" xmlns="http://www.w3.org/2000/svg" p-id="53884" xmlns:xlink="http://www.w3.org/1999/xlink" width="64" height="64"><defs><style type="text/css"></style></defs><path d="M512.151961 6.139837c-279.437294 0-505.992169 226.665393-505.992169 506.300184 0 279.610232 226.554876 506.289951 505.992169 506.289951 279.486412 0 506.041288-226.679719 506.041288-506.289951C1018.193249 232.80523 791.638373 6.139837 512.151961 6.139837zM512.177544 937.922553c-234.833423 0-425.234891-190.501752-425.234891-425.482531 0-234.993059 190.401468-425.481508 425.234891-425.481508 234.856959 0 425.25945 190.488449 425.25945 425.481508C937.436994 747.420801 747.034503 937.922553 512.177544 937.922553zM739.992109 442.037579 284.484751 442.037579c-27.949562 0-50.608631 22.672372-50.608631 50.633191 0 27.974122 22.660092 50.646494 50.608631 50.646494l455.506335 0c27.92398 0 50.608631-22.672372 50.608631-50.646494C790.600741 464.709951 767.916089 442.037579 739.992109 442.037579z" p-id="53885"></path></svg>