<?xml version="1.0" standalone="no"?><!DOCTYPE svg PUBLIC "-//W3C//DTD SVG 1.1//EN" "http://www.w3.org/Graphics/SVG/1.1/DTD/svg11.dtd"><svg t="1533611197113" class="icon" style="" viewBox="0 0 1024 1024" version="1.1" xmlns="http://www.w3.org/2000/svg" p-id="2890" xmlns:xlink="http://www.w3.org/1999/xlink" width="64" height="64"><defs><style type="text/css"></style></defs><path d="M866.56 568.32a28.8 28.8 0 0 1-20.48-8.96L512 204.16 180.48 559.36a28.16 28.16 0 0 1-41.6 0 33.28 33.28 0 0 1 0-44.8l353.28-377.6a28.16 28.16 0 0 1 41.6 0L887.68 512a33.28 33.28 0 0 1 0 44.8 28.8 28.8 0 0 1-21.12 8.96m18.56 320a33.28 33.28 0 0 0 0-44.16L531.84 464.64a28.16 28.16 0 0 0-41.6 0l-353.28 377.6a33.28 33.28 0 0 0 0 44.16 28.16 28.16 0 0 0 41.6 0L512 531.84l332.8 355.2a28.16 28.16 0 0 0 41.6 0" fill="" p-id="2891"></path></svg>