<?xml version="1.0" standalone="no"?><!DOCTYPE svg PUBLIC "-//W3C//DTD SVG 1.1//EN" "http://www.w3.org/Graphics/SVG/1.1/DTD/svg11.dtd"><svg t="1533896497209" class="icon" style="" viewBox="0 0 1024 1024" version="1.1" xmlns="http://www.w3.org/2000/svg" p-id="24505" xmlns:xlink="http://www.w3.org/1999/xlink" width="64" height="64"><defs><style type="text/css"></style></defs><path d="M161.801083 380.182812c28.453029 0 51.522444-23.069415 51.522444-51.522444V205.725478H356.725564c28.453029 0 51.522444-23.069415 51.522444-51.522444s-23.069415-51.522444-51.522444-51.522443H161.801083c-28.453029 0-51.522444 23.069415-51.522444 51.522443v174.457334c0 28.453029 23.070438 51.522444 51.522444 51.522444z m723.375152-277.374308H690.252777c-28.453029 0-51.522444 23.069415-51.522444 51.522444s23.069415 51.522444 51.522444 51.522443h143.401014V328.788282c0 28.453029 23.069415 51.522444 51.522444 51.522443s51.522444-23.069415 51.522443-51.522443V154.202011c0-28.452006-23.069415-51.393507-51.522443-51.393507zM356.725564 818.274522H213.323527V695.339632c0-28.453029-23.069415-51.522444-51.522444-51.522444s-51.522444 23.069415-51.522444 51.522444v174.457334c0 28.453029 23.069415 51.522444 51.522444 51.522443H356.725564c28.453029 0 51.522444-23.069415 51.522444-51.522443 0-28.453029-23.070438-51.522444-51.522444-51.522444z m528.450671-174.457334c-28.453029 0-51.522444 23.069415-51.522444 51.522444v122.93489H690.252777c-28.453029 0-51.522444 23.069415-51.522444 51.522444s23.069415 51.522444 51.522444 51.522443h194.923458c28.453029 0 51.522444-23.069415 51.522443-51.522443V695.339632c0-28.453029-23.069415-51.522444-51.522443-51.522444z m0-183.275163h-723.375152c-28.453029 0-51.522444 23.069415-51.522444 51.522443 0 28.453029 23.069415 51.522444 51.522444 51.522444h723.375152c28.453029 0 51.522444-23.069415 51.522443-51.522444 0-28.453029-23.069415-51.522444-51.522443-51.522443z" fill="" p-id="24506"></path></svg>