<?xml version="1.0" standalone="no"?><!DOCTYPE svg PUBLIC "-//W3C//DTD SVG 1.1//EN" "http://www.w3.org/Graphics/SVG/1.1/DTD/svg11.dtd"><svg t="1533535615267" class="icon" style="" viewBox="0 0 1024 1024" version="1.1" xmlns="http://www.w3.org/2000/svg" p-id="2221" xmlns:xlink="http://www.w3.org/1999/xlink" width="64" height="64"><defs><style type="text/css"></style></defs><path d="M514.257894 4.154525C231.388957 4.154525 6.322103 229.040748 6.322103 512.090316S231.208326 1020.026107 514.257894 1020.026107s507.935791-224.886223 507.935791-507.935791S797.307462 4.154525 514.257894 4.154525z m0 943.077086c-246.742635 0-435.321926-188.579291-435.321926-435.321927s188.579291-435.321926 435.321926-435.321926 435.321926 188.579291 435.321926 435.321926-188.579291 435.321926-435.321926 435.321927zM731.918857 316.105133L427.37414 627.87511l-130.777209-130.777209c-14.45052-14.45052-36.306932-14.45052-50.757453 0s-14.45052 36.306932 0 50.757453l152.272358 159.497618c14.45052 14.45052 36.306932 14.45052 50.757453 0l333.807021-333.80702c14.45052-14.45052 14.45052-43.532193 0-57.982713-14.45052-14.089257-36.126301-14.089257-50.757453 0.541894z" fill="" p-id="2222"></path></svg>