<?xml version="1.0" standalone="no"?><!DOCTYPE svg PUBLIC "-//W3C//DTD SVG 1.1//EN" "http://www.w3.org/Graphics/SVG/1.1/DTD/svg11.dtd"><svg t="1533003658776" class="icon" style="" viewBox="0 0 1024 1024" version="1.1" xmlns="http://www.w3.org/2000/svg" p-id="2230" xmlns:xlink="http://www.w3.org/1999/xlink" width="64" height="64"><defs><style type="text/css"></style></defs><path d="M512 0C229.2224 0 0 229.2224 0 512s229.2224 512 512 512 512-229.2224 512-512S794.7776 0 512 0z m-1.024 959.6672c-247.8848 0-448.8704-201.6256-448.8704-450.3552 0-248.704 200.96-450.3296 448.896-450.3296 247.9104 0 448.8704 201.6256 448.8704 450.3296 0 248.7296-200.96 450.3552-448.8704 450.3552z m239.5392-653.7216L469.12 612.6592l-155.7504-165.9904a33.2288 33.2288 0 0 0-49.152 0 38.784 38.784 0 0 0 0 52.3776l180.608 192.512c6.5024 6.9376 15.36 10.8544 24.576 10.8544h0.1792c9.2928-0.0768 18.176-4.096 24.6528-11.1616L800.256 357.7856a38.784 38.784 0 0 0-0.5376-52.3776 33.28 33.28 0 0 0-49.152 0.5376z" fill="#000000" p-id="2231"></path></svg>