<?xml version="1.0" standalone="no"?><!DOCTYPE svg PUBLIC "-//W3C//DTD SVG 1.1//EN" "http://www.w3.org/Graphics/SVG/1.1/DTD/svg11.dtd"><svg t="1533104407938" class="icon" style="" viewBox="0 0 1024 1024" version="1.1" xmlns="http://www.w3.org/2000/svg" p-id="3780" xmlns:xlink="http://www.w3.org/1999/xlink" width="64" height="64"><defs><style type="text/css"></style></defs><path d="M512 1024C229.24 1024 0 794.76 0 512S229.24 0 512 0s512 229.24 512 512-229.24 512-512 512z m0-955.733C266.923 68.267 68.267 266.923 68.267 512S266.923 955.733 512 955.733 955.733 757.077 955.733 512 757.077 68.267 512 68.267z m0 750.933c-37.717 0-68.267-30.55-68.267-68.267s30.55-68.266 68.267-68.266 68.267 30.549 68.267 68.266c0 37.718-30.55 68.267-68.267 68.267z m0-204.8c-18.842 0-34.133-30.55-34.133-68.267l-34.134-307.2c0-37.717 30.55-68.266 68.267-68.266s68.267 30.549 68.267 68.266l-34.134 307.2c0 37.718-15.291 68.267-34.133 68.267z" p-id="3781"></path></svg>