<?xml version="1.0" standalone="no"?><!DOCTYPE svg PUBLIC "-//W3C//DTD SVG 1.1//EN" "http://www.w3.org/Graphics/SVG/1.1/DTD/svg11.dtd"><svg t="1536026245508" class="icon" style="" viewBox="0 0 1024 1024" version="1.1" xmlns="http://www.w3.org/2000/svg" p-id="43592" xmlns:xlink="http://www.w3.org/1999/xlink" width="200" height="200"><defs><style type="text/css"></style></defs><path d="M768 57.002667c78.506667 0 142.336 63.829333 142.336 142.336v625.664c0 78.506667-63.829333 142.336-142.336 142.336H256c-78.506667 0-142.336-63.829333-142.336-142.336V198.997333c0-37.546667 15.018667-73.728 41.642667-100.693333C181.930667 71.68 218.112 56.661333 256 56.661333c15.701333 0 28.330667-12.629333 28.330667-28.330666C284.330667 12.629333 271.701333 0 256 0 203.093333 0 152.576 20.821333 115.370667 58.368 77.824 95.573333 57.002667 146.432 57.002667 198.997333v625.664c0 52.906667 20.821333 103.424 58.368 140.629334C152.576 1003.178667 203.093333 1024 256 1024h512c52.906667 0 103.424-20.821333 140.629333-58.368 37.205333-37.205333 58.368-88.064 58.368-140.629333V198.997333c0-52.906667-20.821333-103.424-58.368-140.629333C871.424 20.821333 820.906667 0 768 0c-15.701333 0-28.330667 12.629333-28.330667 28.330667 0 15.701333 12.629333 28.672 28.330667 28.672z m0 0" p-id="43593"></path><path d="M256 540.330667c-15.701333 0-28.330667-12.629333-28.330667-28.330667 0-15.701333 12.629333-28.330667 28.330667-28.330667h512c15.701333 0 28.330667 12.629333 28.330667 28.330667 0 15.701333-12.629333 28.330667-28.330667 28.330667H256z m0-170.666667c-15.701333 0-28.330667-12.629333-28.330667-28.330667 0-15.701333 12.629333-28.330667 28.330667-28.330666h512c15.701333 0 28.330667 12.629333 28.330667 28.330666 0 15.701333-12.629333 28.330667-28.330667 28.330667H256z m0 341.333333c-15.701333 0-28.330667-12.629333-28.330667-28.330666 0-15.701333 12.629333-28.330667 28.330667-28.330667h512c15.701333 0 28.330667 12.629333 28.330667 28.330667 0 15.701333-12.629333 28.330667-28.330667 28.330666H256z m113.664-653.994666h284.330667c15.701333 0 28.330667-12.629333 28.330666-28.330667 0-15.701333-12.629333-28.330667-28.330666-28.330667h-284.330667c-15.701333 0-28.330667 12.629333-28.330667 28.330667 0 15.36 12.629333 28.330667 28.330667 28.330667z m0 0" p-id="43594"></path></svg>