<?xml version="1.0" standalone="no"?><!DOCTYPE svg PUBLIC "-//W3C//DTD SVG 1.1//EN" "http://www.w3.org/Graphics/SVG/1.1/DTD/svg11.dtd"><svg t="1542182886321" class="icon" style="" viewBox="0 0 1024 1024" version="1.1" xmlns="http://www.w3.org/2000/svg" p-id="1799" xmlns:xlink="http://www.w3.org/1999/xlink" width="64" height="64"><defs><style type="text/css"></style></defs><path d="M560.347785 511.695926l281.329374-279.869818c13.257632-13.257632 13.379261-34.786079 0.12163-48.043711-13.257632-13.379261-34.664449-13.379261-47.922081-0.12163L512.425704 463.652215 233.407293 183.782397c-13.136002-13.257632-34.664449-13.379261-47.922081 0-13.257632 13.257632-13.257632 34.664449 0 47.922081l278.896781 279.748189-281.207744 279.748189c-13.257632 13.257632-13.379261 34.664449-0.12163 48.043711 6.689631 6.689631 15.325336 9.973631 24.08267 9.973631 8.635705 0 17.39304-3.284 23.961041-9.852001l281.329374-279.748189 281.451004 282.424041c6.689631 6.689631 15.325336 9.973631 24.08267 9.973631 8.635705 0 17.39304-3.284 23.961041-9.852001 13.257632-13.257632 13.257632-34.786079 0-48.043711L560.347785 511.695926 560.347785 511.695926 560.347785 511.695926zM560.347785 511.695926" p-id="1800"></path></svg>