<?xml version="1.0" standalone="no"?><!DOCTYPE svg PUBLIC "-//W3C//DTD SVG 1.1//EN" "http://www.w3.org/Graphics/SVG/1.1/DTD/svg11.dtd"><svg t="1533626072571" class="icon" style="" viewBox="0 0 1024 1024" version="1.1" xmlns="http://www.w3.org/2000/svg" p-id="18061" xmlns:xlink="http://www.w3.org/1999/xlink" width="200" height="200"><defs><style type="text/css"></style></defs><path d="M702 250c0-103.8-84.2-188-188-188s-188 84.2-188 188v195c0 103.8 84.2 188 188 188s188-84.2 188-188V250z m-320 4.6c0-34.6 18.1-67.3 42.8-92 24.7-24.7 53.8-38.4 88.5-38.4 34.6 0 69 13.6 93.7 38.4s40 57.4 40 92v189.1c0 34.6-17.1 67.3-41.8 92-24.7 24.7-59.2 38.4-93.8 38.4-34.6 0-63.9-12.6-88.7-37.3C398 512 382 478.3 382 443.7V254.6z" p-id="18062"></path><path d="M797.7 428.8c-16.8 0-30.4 13.6-30.4 30.4 0 69-26.9 133.9-75.7 182.8s-113.7 75.7-182.8 75.7c-69 0-133.9-26.9-182.8-75.7-48.8-48.8-75.7-113.7-75.7-182.8 0-16.8-13.6-30.4-30.4-30.4s-30.4 13.6-30.4 30.4c0 43.1 8.4 84.9 25.1 124.3 16.1 38 39.1 72.2 68.4 101.5 29.3 29.3 70.8 52.3 108.8 68.4 30.3 12.8 46.2 20.8 88.2 23.8V884H342.8c-16.8 0-30.4 18.2-30.4 35s13.6 35 30.4 35h346c16.8 0 30.4-18.2 30.4-35s-13.6-35-30.4-35H549V777.1c28-3.1 58.8-11 88.6-23.6 38-16.1 70-39.1 99.3-68.4 29.3-29.3 51.2-63.5 67.3-101.5 16.7-39.4 24.6-81.2 24.6-124.3-0.1-16.8-14.3-30.5-31.1-30.5z" p-id="18063"></path></svg>