<?xml version="1.0" standalone="no"?><!DOCTYPE svg PUBLIC "-//W3C//DTD SVG 1.1//EN" "http://www.w3.org/Graphics/SVG/1.1/DTD/svg11.dtd"><svg t="1536915511585" class="icon" style="" viewBox="0 0 1024 1024" version="1.1" xmlns="http://www.w3.org/2000/svg" p-id="4982" xmlns:xlink="http://www.w3.org/1999/xlink" width="128" height="128"><defs><style type="text/css"></style></defs><path d="M688.419556 351.497956c11.384889 0 22.650311 0.813511 33.819022 2.063644-30.392889-141.518222-181.688889-246.665956-354.397867-246.665956-193.089422 0-351.246222 131.586844-351.246222 298.702222 0 96.497778 52.619378 175.672889 140.551111 237.128533l-35.130311 105.655467 122.7904-61.565156c43.933867 8.681244 79.189333 17.636978 123.0336 17.636978 11.022222 0 21.947733-0.5504 32.790756-1.399467-6.859378-23.468089-10.843022-48.061156-10.843022-73.598578C389.789867 476.009244 521.564444 351.497956 688.419556 351.497956L688.419556 351.497956zM497.083733 249.132089c29.9904 0 54.301867 24.312889 54.301867 54.304711s-24.311467 54.303289-54.301867 54.303289c-29.993244 0-54.304711-24.312889-54.304711-54.303289C442.779022 273.444978 467.091911 249.132089 497.083733 249.132089L497.083733 249.132089zM251.328 358.8352c-29.9904 0-54.304711-24.312889-54.304711-54.303289 0-29.9904 24.314311-54.303289 54.304711-54.303289 29.993244 0 54.304711 24.312889 54.304711 54.303289C305.632711 334.520889 281.321244 358.8352 251.328 358.8352L251.328 358.8352zM1006.520889 626.379378c0-140.425956-140.516978-254.893511-298.345244-254.893511-167.123911 0-298.744889 114.467556-298.744889 254.893511 0 140.669156 131.620978 254.8864 298.744889 254.8864 34.975289 0 70.2592-8.829156 105.390933-17.634133l96.347022 52.770133-26.423467-87.778133C953.998222 775.732622 1006.520889 705.594311 1006.520889 626.379378L1006.520889 626.379378zM616.395378 587.013689c-21.356089 0-38.6688-17.315556-38.6688-38.671644 0-21.357511 17.312711-38.6688 38.6688-38.6688 21.356089 0 38.670222 17.312711 38.670222 38.6688C655.067022 569.699556 637.751467 587.013689 616.395378 587.013689L616.395378 587.013689zM809.486222 589.208178c-21.358933 0-38.670222-17.314133-38.670222-38.6688 0-21.358933 17.312711-38.6688 38.670222-38.6688 21.356089 0 38.670222 17.311289 38.670222 38.6688C848.157867 571.892622 830.843733 589.208178 809.486222 589.208178L809.486222 589.208178z" p-id="4983" fill="#ffffff"></path></svg>