<?xml version="1.0" standalone="no"?><!DOCTYPE svg PUBLIC "-//W3C//DTD SVG 1.1//EN" "http://www.w3.org/Graphics/SVG/1.1/DTD/svg11.dtd"><svg t="1533535140320" class="icon" style="" viewBox="0 0 1024 1024" version="1.1" xmlns="http://www.w3.org/2000/svg" p-id="15840" xmlns:xlink="http://www.w3.org/1999/xlink" width="200" height="200"><defs><style type="text/css"></style></defs><path d="M631.466667 37.546667c-204.8 0-375.466667 167.253333-375.466667 375.466667 0 81.92 23.893333 153.6 68.266667 215.04l-133.12 133.12L78.506667 648.533333c-13.653333-13.653333-34.133333-13.653333-47.786667 0-13.653333 13.653333-13.653333 34.133333 0 47.786667l112.64 112.64-116.053333 116.053333c-13.653333 13.653333-13.653333 34.133333 0 47.786667 6.826667 6.826667 13.653333 10.24 23.893333 10.24s17.066667-3.413333 23.893333-10.24l116.053333-116.053333 102.4 102.4c6.826667 6.826667 13.653333 10.24 23.893333 10.24 10.24 0 17.066667-3.413333 23.893333-10.24 13.653333-13.653333 13.653333-34.133333 0-47.786667l-102.4-102.4 129.706667-129.706667c68.266667 64.853333 160.426667 105.813333 262.826667 105.813333 204.8 0 375.466667-167.253333 375.466667-375.466667S839.68 37.546667 631.466667 37.546667zM631.466667 720.213333c-167.253333 0-307.2-136.533333-307.2-307.2 0-167.253333 136.533333-307.2 307.2-307.2s307.2 136.533333 307.2 307.2C938.666667 580.266667 802.133333 720.213333 631.466667 720.213333z" p-id="15841" fill="#f639be"></path></svg>