<?xml version="1.0" standalone="no"?><!DOCTYPE svg PUBLIC "-//W3C//DTD SVG 1.1//EN" "http://www.w3.org/Graphics/SVG/1.1/DTD/svg11.dtd"><svg t="1533887017518" class="icon" style="" viewBox="0 0 1024 1024" version="1.1" xmlns="http://www.w3.org/2000/svg" p-id="3503" xmlns:xlink="http://www.w3.org/1999/xlink" width="64" height="64"><defs><style type="text/css"></style></defs><path d="M512.01445 0C229.234968 0 0.007225 229.227743 0.007225 511.992775c0 282.757807 229.227743 512.007225 512.007225 512.007225 282.736132 0 511.98555-229.249418 511.98555-512.007225C1024 229.227743 794.750582 0 512.01445 0zM250.563184 302.113596l121.054964 0c-8.034206-15.317011-17.188288-31.941748-27.462245-49.881437l35.872151-16.812587c11.581683 19.052339 22.419191 38.299753 32.505299 57.727792l-18.777789 8.966232 119.089762 0 0 35.872151L250.563184 337.985748 250.563184 302.113596zM232.623495 432.142017l90.233091 0c-15.880562-25.222493-30.829098-46.890284-44.838383-65.010598l30.258322-21.299316c12.333084 14.948536 28.206421 36.052776 47.641685 63.334396l-31.667198 22.975517 73.976829 0c20.360065-29.326296 39.137854-58.284118 56.326141-86.866239l39.795329 22.419191c-18.120313 23.358442-35.402526 44.838383-51.839413 64.454272L527.425386 432.149242l0 35.872151L232.623495 468.021393 232.623495 432.142017zM232.623495 710.109645c18.300938-28.394271 37.924053-65.747548 58.847668-112.088732l38.111903 17.932463c-20.17944 42.222931-40.171029 80.334834-59.974769 114.328484C258.77079 723.56983 246.444931 716.84335 232.623495 710.109645zM402.996345 719.083102c0 39.593029-19.052339 59.411219-57.164242 59.411219-16.068412 0-34.1815-0.180625-54.36094-0.56355-1.495576-12.333084-3.547478-26.530219-6.16293-42.591406 21.667791 2.246977 38.668228 3.359627 51.001312 3.359627 17.556763 0 26.342369-9.522557 26.342369-28.589346L362.651916 572.805645 248.316207 572.805645l0-35.872151 114.328484 0 0-53.233839 40.351655 0 0 53.233839 109.84898 0 0 35.872151L402.996345 572.805645 402.996345 719.083102zM419.808932 622.694306l33.068849-21.855641c20.923615 28.394271 39.231779 54.556015 54.92449 78.456332l-35.864926 24.666168C455.500459 675.18397 438.124321 648.0902 419.808932 622.694306zM791.390955 493.236661 711.251196 493.236661l0 293.667565-41.47153 0L669.779666 493.236661l-82.943061 0 0 27.447795c0 114.711409-27.462245 204.005249-82.386735 267.903196-8.966232-11.588908-18.871714-23.539067-29.701997-35.872151 48.19801-52.677514 72.300628-130.584746 72.300628-233.700021L547.048501 285.301009c77.343682-0.744176 148.705059-8.409906 214.098582-22.975517l14.565611 43.154957c-73.969604 9.717632-136.935525 16.068412-188.868863 19.059564l0 130.584746 204.561575 0L791.405405 493.236661z" p-id="3504"></path></svg>